<svg xmlns="http://www.w3.org/2000/svg"
     width="1640"
     height="940"
     viewBox="-20 -20 1640 940">
<g id="o1:165" transform="translate(0, 0)"><rect x="0" y="0" width="1600" height="900" fill="#ffffff" stroke="none" stroke-width="0" rx="0" ry="0"/></g>
<g id="a1:70" transform="translate(120, 40.705)"><text font-size="30" font-family="Noto Sans SC" font-weight="bold" fill="#1f2937" text-anchor="start" dominant-baseline="alphabetic" x="0"><tspan x="0" y="35.295"><tspan x="0" text-anchor="start">全部周期重点分组变化</tspan></tspan></text></g>
<g id="a1:71" transform="translate(120, 93.176)"><text font-size="16" font-family="Noto Sans SC" font-weight="normal" fill="#6b7280" text-anchor="start" dominant-baseline="alphabetic" x="0"><tspan x="0" y="18.824"><tspan x="0" text-anchor="start">2026/02/23–2026/07/20 · 按周统计 · 单位：%</tspan></tspan></text></g>
<g id="c1:57" transform="translate(120, 142)"><path fill="none" stroke="#e5e7eb" stroke-width="1" stroke-linecap="round" stroke-linejoin="round" d="M 0 0 L 1360 0"/></g>
<g id="c1:58" transform="translate(594, 188)"><path fill="none" stroke="#2f67e8" stroke-width="3" stroke-linecap="round" stroke-linejoin="round" d="M 0 0 L 26 0"/></g>
<g id="o1:166" transform="translate(603.5, 184.5)"><ellipse fill="#ffffff" stroke="#2f67e8" stroke-width="2" cx="3.5" cy="3.5" rx="3.5" ry="3.5"/></g>
<g id="a1:72" transform="translate(630, 174.176)"><text font-size="16" font-family="Noto Sans SC" font-weight="normal" fill="#374151" text-anchor="start" dominant-baseline="alphabetic" x="0"><tspan x="0" y="18.824"><tspan x="0" text-anchor="start">下载侧 T3</tspan></tspan></text></g>
<g id="c1:59" transform="translate(716, 188)"><path fill="none" stroke="#f05a00" stroke-width="3" stroke-linecap="round" stroke-linejoin="round" d="M 0 0 L 26 0"/></g>
<g id="o1:167" transform="translate(725.5, 184.5)"><ellipse fill="#ffffff" stroke="#f05a00" stroke-width="2" cx="3.5" cy="3.5" rx="3.5" ry="3.5"/></g>
<g id="a1:73" transform="translate(752, 174.176)"><text font-size="16" font-family="Noto Sans SC" font-weight="normal" fill="#374151" text-anchor="start" dominant-baseline="alphabetic" x="0"><tspan x="0" y="18.824"><tspan x="0" text-anchor="start">收入侧 US+T1</tspan></tspan></text></g>
<g id="c1:60" transform="translate(862, 188)"><path fill="none" stroke="#0f766e" stroke-width="3" stroke-linecap="round" stroke-linejoin="round" d="M 0 0 L 26 0"/></g>
<g id="o1:168" transform="translate(871.5, 184.5)"><ellipse fill="#ffffff" stroke="#0f766e" stroke-width="2" cx="3.5" cy="3.5" rx="3.5" ry="3.5"/></g>
<g id="a1:74" transform="translate(898, 174.176)"><text font-size="16" font-family="Noto Sans SC" font-weight="normal" fill="#374151" text-anchor="start" dominant-baseline="alphabetic" x="0"><tspan x="0" y="18.824"><tspan x="0" text-anchor="start">收入数据覆盖率</tspan></tspan></text></g>
<g id="a1:75" transform="translate(138, 217.529)"><text font-size="14" font-family="Noto Sans SC" font-weight="bold" fill="#4b5563" text-anchor="start" dominant-baseline="alphabetic" x="0"><tspan x="0" y="16.471"><tspan x="0" text-anchor="start">占比（%）</tspan></tspan></text></g>
<g id="c1:61" transform="translate(138, 658)"><path fill="none" stroke="#e5e7eb" stroke-width="1" stroke-linecap="round" stroke-linejoin="round" d="M 0 0 L 1200 0"/></g>
<g id="a1:76" transform="translate(96, 646.529)"><text font-size="14" font-family="Noto Sans SC" font-weight="normal" fill="#6b7280" text-anchor="end" dominant-baseline="alphabetic" x="16"><tspan x="16" y="16.471"><tspan x="0.46" text-anchor="start">30</tspan></tspan></text></g>
<g id="c1:62" transform="translate(138, 601.71)"><path fill="none" stroke="#e5e7eb" stroke-width="1" stroke-linecap="round" stroke-linejoin="round" d="M 0 0 L 1200 0"/></g>
<g id="a1:77" transform="translate(96, 590.239)"><text font-size="14" font-family="Noto Sans SC" font-weight="normal" fill="#6b7280" text-anchor="end" dominant-baseline="alphabetic" x="16"><tspan x="16" y="16.471"><tspan x="0.46" text-anchor="start">35</tspan></tspan></text></g>
<g id="c1:63" transform="translate(138, 545.43)"><path fill="none" stroke="#e5e7eb" stroke-width="1" stroke-linecap="round" stroke-linejoin="round" d="M 0 0 L 1200 0"/></g>
<g id="a1:78" transform="translate(96, 533.959)"><text font-size="14" font-family="Noto Sans SC" font-weight="normal" fill="#6b7280" text-anchor="end" dominant-baseline="alphabetic" x="16"><tspan x="16" y="16.471"><tspan x="0.46" text-anchor="start">40</tspan></tspan></text></g>
<g id="c1:64" transform="translate(138, 489.14)"><path fill="none" stroke="#e5e7eb" stroke-width="1" stroke-linecap="round" stroke-linejoin="round" d="M 0 0 L 1200 0"/></g>
<g id="a1:79" transform="translate(96, 477.669)"><text font-size="14" font-family="Noto Sans SC" font-weight="normal" fill="#6b7280" text-anchor="end" dominant-baseline="alphabetic" x="16"><tspan x="16" y="16.471"><tspan x="0.46" text-anchor="start">45</tspan></tspan></text></g>
<g id="c1:65" transform="translate(138, 432.86)"><path fill="none" stroke="#e5e7eb" stroke-width="1" stroke-linecap="round" stroke-linejoin="round" d="M 0 0 L 1200 0"/></g>
<g id="a1:80" transform="translate(96, 421.389)"><text font-size="14" font-family="Noto Sans SC" font-weight="normal" fill="#6b7280" text-anchor="end" dominant-baseline="alphabetic" x="16"><tspan x="16" y="16.471"><tspan x="0.46" text-anchor="start">50</tspan></tspan></text></g>
<g id="c1:66" transform="translate(138, 376.57)"><path fill="none" stroke="#e5e7eb" stroke-width="1" stroke-linecap="round" stroke-linejoin="round" d="M 0 0 L 1200 0"/></g>
<g id="a1:81" transform="translate(96, 365.099)"><text font-size="14" font-family="Noto Sans SC" font-weight="normal" fill="#6b7280" text-anchor="end" dominant-baseline="alphabetic" x="16"><tspan x="16" y="16.471"><tspan x="0.46" text-anchor="start">55</tspan></tspan></text></g>
<g id="c1:67" transform="translate(138, 320.29)"><path fill="none" stroke="#e5e7eb" stroke-width="1" stroke-linecap="round" stroke-linejoin="round" d="M 0 0 L 1200 0"/></g>
<g id="a1:82" transform="translate(96, 308.819)"><text font-size="14" font-family="Noto Sans SC" font-weight="normal" fill="#6b7280" text-anchor="end" dominant-baseline="alphabetic" x="16"><tspan x="16" y="16.471"><tspan x="0.46" text-anchor="start">60</tspan></tspan></text></g>
<g id="c1:68" transform="translate(138, 264)"><path fill="none" stroke="#e5e7eb" stroke-width="1" stroke-linecap="round" stroke-linejoin="round" d="M 0 0 L 1200 0"/></g>
<g id="a1:83" transform="translate(96, 252.529)"><text font-size="14" font-family="Noto Sans SC" font-weight="normal" fill="#6b7280" text-anchor="end" dominant-baseline="alphabetic" x="16"><tspan x="16" y="16.471"><tspan x="0.46" text-anchor="start">65</tspan></tspan></text></g>
<g id="c1:69" transform="translate(138, 264)"><path fill="none" stroke="#d1d5db" stroke-width="1" stroke-linecap="round" stroke-linejoin="round" d="M 0 0 L 0 394"/></g>
<g id="c1:70" transform="translate(138, 658)"><path fill="none" stroke="#d1d5db" stroke-width="1" stroke-linecap="round" stroke-linejoin="round" d="M 0 0 L 1200 0"/></g>
<g id="c1:71" transform="translate(138, 658)"><path fill="none" stroke="#d1d5db" stroke-width="1" stroke-linecap="round" stroke-linejoin="round" d="M 0 0 L 0 6"/></g>
<g id="a1:84" transform="translate(120, 672.529)"><text font-size="14" font-family="Noto Sans SC" font-weight="normal" fill="#6b7280" text-anchor="middle" dominant-baseline="alphabetic" x="18"><tspan x="18" y="16.471"><tspan x="-0.285" text-anchor="start">02/23</tspan></tspan></text></g>
<g id="c1:72" transform="translate(252.29, 658)"><path fill="none" stroke="#d1d5db" stroke-width="1" stroke-linecap="round" stroke-linejoin="round" d="M 0 0 L 0 6"/></g>
<g id="a1:85" transform="translate(234.29, 672.529)"><text font-size="14" font-family="Noto Sans SC" font-weight="normal" fill="#6b7280" text-anchor="middle" dominant-baseline="alphabetic" x="18"><tspan x="18" y="16.471"><tspan x="-0.285" text-anchor="start">03/09</tspan></tspan></text></g>
<g id="c1:73" transform="translate(366.57, 658)"><path fill="none" stroke="#d1d5db" stroke-width="1" stroke-linecap="round" stroke-linejoin="round" d="M 0 0 L 0 6"/></g>
<g id="a1:86" transform="translate(348.57, 672.529)"><text font-size="14" font-family="Noto Sans SC" font-weight="normal" fill="#6b7280" text-anchor="middle" dominant-baseline="alphabetic" x="18"><tspan x="18" y="16.471"><tspan x="-0.285" text-anchor="start">03/23</tspan></tspan></text></g>
<g id="c1:74" transform="translate(480.86, 658)"><path fill="none" stroke="#d1d5db" stroke-width="1" stroke-linecap="round" stroke-linejoin="round" d="M 0 0 L 0 6"/></g>
<g id="a1:87" transform="translate(462.86, 672.529)"><text font-size="14" font-family="Noto Sans SC" font-weight="normal" fill="#6b7280" text-anchor="middle" dominant-baseline="alphabetic" x="18"><tspan x="18" y="16.471"><tspan x="-0.285" text-anchor="start">04/06</tspan></tspan></text></g>
<g id="c1:75" transform="translate(595.14, 658)"><path fill="none" stroke="#d1d5db" stroke-width="1" stroke-linecap="round" stroke-linejoin="round" d="M 0 0 L 0 6"/></g>
<g id="a1:88" transform="translate(577.14, 672.529)"><text font-size="14" font-family="Noto Sans SC" font-weight="normal" fill="#6b7280" text-anchor="middle" dominant-baseline="alphabetic" x="18"><tspan x="18" y="16.471"><tspan x="-0.285" text-anchor="start">04/20</tspan></tspan></text></g>
<g id="c1:76" transform="translate(709.43, 658)"><path fill="none" stroke="#d1d5db" stroke-width="1" stroke-linecap="round" stroke-linejoin="round" d="M 0 0 L 0 6"/></g>
<g id="a1:89" transform="translate(691.43, 672.529)"><text font-size="14" font-family="Noto Sans SC" font-weight="normal" fill="#6b7280" text-anchor="middle" dominant-baseline="alphabetic" x="18"><tspan x="18" y="16.471"><tspan x="-0.285" text-anchor="start">05/04</tspan></tspan></text></g>
<g id="c1:77" transform="translate(823.71, 658)"><path fill="none" stroke="#d1d5db" stroke-width="1" stroke-linecap="round" stroke-linejoin="round" d="M 0 0 L 0 6"/></g>
<g id="a1:90" transform="translate(805.71, 672.529)"><text font-size="14" font-family="Noto Sans SC" font-weight="normal" fill="#6b7280" text-anchor="middle" dominant-baseline="alphabetic" x="18"><tspan x="18" y="16.471"><tspan x="-0.285" text-anchor="start">05/18</tspan></tspan></text></g>
<g id="c1:78" transform="translate(938, 658)"><path fill="none" stroke="#d1d5db" stroke-width="1" stroke-linecap="round" stroke-linejoin="round" d="M 0 0 L 0 6"/></g>
<g id="a1:91" transform="translate(920, 672.529)"><text font-size="14" font-family="Noto Sans SC" font-weight="normal" fill="#6b7280" text-anchor="middle" dominant-baseline="alphabetic" x="18"><tspan x="18" y="16.471"><tspan x="-0.285" text-anchor="start">06/01</tspan></tspan></text></g>
<g id="c1:79" transform="translate(1052.29, 658)"><path fill="none" stroke="#d1d5db" stroke-width="1" stroke-linecap="round" stroke-linejoin="round" d="M 0 0 L 0 6"/></g>
<g id="a1:92" transform="translate(1034.29, 672.529)"><text font-size="14" font-family="Noto Sans SC" font-weight="normal" fill="#6b7280" text-anchor="middle" dominant-baseline="alphabetic" x="18"><tspan x="18" y="16.471"><tspan x="-0.285" text-anchor="start">06/15</tspan></tspan></text></g>
<g id="c1:80" transform="translate(1166.57, 658)"><path fill="none" stroke="#d1d5db" stroke-width="1" stroke-linecap="round" stroke-linejoin="round" d="M 0 0 L 0 6"/></g>
<g id="a1:93" transform="translate(1148.57, 672.529)"><text font-size="14" font-family="Noto Sans SC" font-weight="normal" fill="#6b7280" text-anchor="middle" dominant-baseline="alphabetic" x="18"><tspan x="18" y="16.471"><tspan x="-0.285" text-anchor="start">06/29</tspan></tspan></text></g>
<g id="c1:81" transform="translate(1280.86, 658)"><path fill="none" stroke="#d1d5db" stroke-width="1" stroke-linecap="round" stroke-linejoin="round" d="M 0 0 L 0 6"/></g>
<g id="a1:94" transform="translate(1241.86, 672.529)"><text font-size="14" font-family="Noto Sans SC" font-weight="normal" fill="#6b7280" text-anchor="end" dominant-baseline="alphabetic" x="36"><tspan x="36" y="16.471"><tspan x="-0.57" text-anchor="start">07/13</tspan></tspan></text></g>
<g id="c1:82" transform="translate(1338, 658)"><path fill="none" stroke="#d1d5db" stroke-width="1" stroke-linecap="round" stroke-linejoin="round" d="M 0 0 L 0 6"/></g>
<g id="a1:95" transform="translate(1341, 672.529)"><text font-size="14" font-family="Noto Sans SC" font-weight="normal" fill="#6b7280" text-anchor="start" dominant-baseline="alphabetic" x="0"><tspan x="0" y="16.471"><tspan x="0" text-anchor="start">07/20</tspan></tspan></text></g>
<g id="c1:83" transform="translate(138, 342.8)"><path fill="none" stroke="#2f67e8" stroke-width="3" stroke-linecap="round" stroke-linejoin="round" d="M 0 9.01 L 57.14 69.79 L 114.29 76.55 L 171.43 82.18 L 228.57 50.66 L 285.71 77.67 L 342.86 0 L 400 92.31 L 457.14 67.54 L 514.29 30.39 L 571.43 73.17 L 628.57 141.84 L 685.71 55.16 L 742.86 19.14 L 800 131.71 L 857.14 81.05 L 914.29 81.05 L 971.43 79.93 L 1028.57 95.69 L 1085.71 78.8 L 1142.86 16.89 L 1200 57.41"/></g>
<g id="o1:169" transform="translate(1333.2, 395.41)"><ellipse fill="#ffffff" stroke="#2f67e8" stroke-width="2.2" cx="4.8" cy="4.8" rx="4.8" ry="4.8"/></g>
<g id="c1:84" transform="translate(138, 329.29)"><path fill="none" stroke="#f05a00" stroke-width="3" stroke-linecap="round" stroke-linejoin="round" d="M 0 115.95 L 57.14 153.1 L 114.29 218.39 L 171.43 92.31 L 228.57 52.91 L 285.71 136.21 L 342.86 88.93 L 400 316.33 L 457.14 131.71 L 514.29 21.39 L 571.43 128.33 L 628.57 57.41 L 685.71 68.67 L 742.86 166.61 L 800 149.72 L 857.14 211.64 L 914.29 114.82 L 971.43 150.85 L 1028.57 200.38 L 1085.71 0 L 1142.86 132.84 L 1200 147.47"/></g>
<g id="o1:170" transform="translate(1333.2, 471.96)"><ellipse fill="#ffffff" stroke="#f05a00" stroke-width="2.2" cx="4.8" cy="4.8" rx="4.8" ry="4.8"/></g>
<g id="c1:85" transform="translate(138, 288.77)"><path fill="none" stroke="#0f766e" stroke-width="3" stroke-linecap="round" stroke-linejoin="round" d="M 0 102.44 L 57.14 129.45 L 114.29 144.09 L 171.43 174.48 L 228.57 93.43 L 285.71 111.44 L 342.86 0 L 400 117.07 L 457.14 96.81 L 514.29 103.56 L 571.43 112.57 L 628.57 193.62 L 685.71 109.19 L 742.86 115.94 L 800 155.34 L 857.14 120.45 L 914.29 124.95 L 971.43 56.28 L 1028.57 229.64 L 1085.71 109.19 L 1142.86 90.05 L 1200 178.98"/></g>
<g id="o1:171" transform="translate(1333.2, 462.95)"><ellipse fill="#ffffff" stroke="#0f766e" stroke-width="2.2" cx="4.8" cy="4.8" rx="4.8" ry="4.8"/></g>
<g id="c1:86" transform="translate(1338, 377)"><path fill="none" stroke="#2f67e8" stroke-width="2" stroke-linecap="round" stroke-linejoin="round" d="M 0 23.21 L 24 23.21 L 24 0"/></g>
<g id="a1:96" transform="translate(1392, 365.529)"><text font-size="14" font-family="Noto Sans SC" font-weight="bold" fill="#2f67e8" text-anchor="start" dominant-baseline="alphabetic" x="0"><tspan x="0" y="16.471"><tspan x="0" text-anchor="start">下载侧 T3 52.9%</tspan></tspan></text></g>
<g id="c1:87" transform="translate(1338, 453)"><path fill="none" stroke="#0f766e" stroke-width="2" stroke-linecap="round" stroke-linejoin="round" d="M 0 14.75 L 24 14.75 L 24 0"/></g>
<g id="a1:97" transform="translate(1392, 441.529)"><text font-size="14" font-family="Noto Sans SC" font-weight="bold" fill="#0f766e" text-anchor="start" dominant-baseline="alphabetic" x="0"><tspan x="0" y="16.471"><tspan x="0" text-anchor="start">收入数据覆盖率 46.9%</tspan></tspan></text></g>
<g id="c1:88" transform="translate(1338, 476.76)"><path fill="none" stroke="#f05a00" stroke-width="2" stroke-linecap="round" stroke-linejoin="round" d="M 0 0 L 24 0 L 24 18.24"/></g>
<g id="a1:98" transform="translate(1392, 483.529)"><text font-size="14" font-family="Noto Sans SC" font-weight="bold" fill="#f05a00" text-anchor="start" dominant-baseline="alphabetic" x="0"><tspan x="0" y="16.471"><tspan x="0" text-anchor="start">收入侧 US+T1 46.1%</tspan></tspan></text></g>
<g id="c1:89" transform="translate(120, 750)"><path fill="none" stroke="#e5e7eb" stroke-width="1" stroke-linecap="round" stroke-linejoin="round" d="M 0 0 L 1360 0"/></g>
<g id="a1:99" transform="translate(120, 773.529)"><text font-size="14" font-family="Noto Sans SC" font-weight="normal" fill="#4b5563" text-anchor="start" dominant-baseline="alphabetic" x="0"><tspan x="0" y="16.471"><tspan x="0" text-anchor="start">口径：下载侧 T3、收入侧 US+T1 与收入数据覆盖率；按周等权聚合的 Top5 国家地区份额结构。</tspan></tspan></text></g>
</svg>