<svg xmlns="http://www.w3.org/2000/svg"
     width="1640"
     height="940"
     viewBox="-20 -20 1640 940">
<g id="o1:37" transform="translate(0, 0)"><rect x="0" y="0" width="1600" height="900" fill="#ffffff" stroke="none" stroke-width="0" rx="0" ry="0"/></g>
<g id="n1:8" transform="translate(100, 41.999)"><g id="a1:47" transform="translate(0, 0)"><text font-size="34" font-family="Noto Sans SC" font-weight="bold" fill="#0f172a" text-anchor="start" dominant-baseline="alphabetic" x="0"><tspan x="0" y="40.001"><tspan x="0" text-anchor="start">全球主分组结构</tspan></tspan></text></g><g id="a1:48" transform="translate(0, 55.177)"><text font-size="16" font-family="Noto Sans SC" font-weight="normal" fill="#64748b" text-anchor="start" dominant-baseline="alphabetic" x="0"><tspan x="0" y="18.824"><tspan x="0" text-anchor="start">下载侧与收入侧的Top5国家地区份额结构·单位：%</tspan></tspan></text></g><g id="c1:19" transform="translate(0, 110.001)"><path fill="none" stroke="#e2e8f0" stroke-width="2" stroke-linecap="round" stroke-linejoin="round" d="M 0 0 L 1400 0"/></g><g id="n1:9" transform="translate(435, 137.177)"><g id="o1:38" transform="translate(0, 4.824000000000012)"><rect x="0" y="0" width="16" height="16" fill="#5b5ce2" stroke="none" stroke-width="0" rx="2" ry="2"/></g><g id="a1:49" transform="translate(26, 0)"><text font-size="16" font-family="Noto Sans SC" font-weight="normal" fill="#334155" text-anchor="start" dominant-baseline="alphabetic" x="0"><tspan x="0" y="18.824"><tspan x="0" text-anchor="start">US</tspan></tspan></text></g><g id="o1:39" transform="translate(115, 4.824000000000012)"><rect x="0" y="0" width="16" height="16" fill="#20a7a0" stroke="none" stroke-width="0" rx="2" ry="2"/></g><g id="a1:50" transform="translate(141, 0)"><text font-size="16" font-family="Noto Sans SC" font-weight="normal" fill="#334155" text-anchor="start" dominant-baseline="alphabetic" x="0"><tspan x="0" y="18.824"><tspan x="0" text-anchor="start">T1</tspan></tspan></text></g><g id="o1:40" transform="translate(230, 4.824000000000012)"><rect x="0" y="0" width="16" height="16" fill="#63bce3" stroke="none" stroke-width="0" rx="2" ry="2"/></g><g id="a1:51" transform="translate(256, 0)"><text font-size="16" font-family="Noto Sans SC" font-weight="normal" fill="#334155" text-anchor="start" dominant-baseline="alphabetic" x="0"><tspan x="0" y="18.824"><tspan x="0" text-anchor="start">T2</tspan></tspan></text></g><g id="o1:41" transform="translate(345, 4.824000000000012)"><rect x="0" y="0" width="16" height="16" fill="#3867b9" stroke="none" stroke-width="0" rx="2" ry="2"/></g><g id="a1:52" transform="translate(371, 0)"><text font-size="16" font-family="Noto Sans SC" font-weight="normal" fill="#334155" text-anchor="start" dominant-baseline="alphabetic" x="0"><tspan x="0" y="18.824"><tspan x="0" text-anchor="start">T3</tspan></tspan></text></g><g id="o1:42" transform="translate(460, 4.824000000000012)"><rect x="0" y="0" width="16" height="16" fill="#cbd5e1" stroke="none" stroke-width="0" rx="2" ry="2"/></g><g id="a1:53" transform="translate(486, 0)"><text font-size="16" font-family="Noto Sans SC" font-weight="normal" fill="#334155" text-anchor="start" dominant-baseline="alphabetic" x="0"><tspan x="0" y="18.824"><tspan x="0" text-anchor="start">其他</tspan></tspan></text></g></g><g id="c1:20" transform="translate(200, 282.001)"><path fill="none" stroke="#e2e8f0" stroke-width="1" stroke-linecap="round" stroke-linejoin="round" d="M 0 0 L 1000 0"/></g><g id="c1:21" transform="translate(200, 702.001)"><path fill="none" stroke="#cbd5e1" stroke-width="2" stroke-linecap="round" stroke-linejoin="round" d="M 0 0 L 1000 0"/></g><g id="a1:54" transform="translate(164, 260.53)"><text font-size="14" font-family="Noto Sans SC" font-weight="normal" fill="#94a3b8" text-anchor="end" dominant-baseline="alphabetic" x="36"><tspan x="36" y="16.471"><tspan x="-0.2" text-anchor="start">100%</tspan></tspan></text></g><g id="a1:55" transform="translate(179, 690.53)"><text font-size="14" font-family="Noto Sans SC" font-weight="normal" fill="#94a3b8" text-anchor="end" dominant-baseline="alphabetic" x="21"><tspan x="21" y="16.471"><tspan x="0.34" text-anchor="start">0%</tspan></tspan></text></g><g id="a1:56" transform="translate(390, 210.471)"><text font-size="20" font-family="Noto Sans SC" font-weight="bold" fill="#0f172a" text-anchor="middle" dominant-baseline="alphabetic" x="30"><tspan x="30" y="23.53"><tspan x="0" text-anchor="start">下载侧</tspan></tspan></text></g><g id="a1:57" transform="translate(388, 241.53)"><text font-size="14" font-family="Noto Sans SC" font-weight="normal" fill="#64748b" text-anchor="middle" dominant-baseline="alphabetic" x="32"><tspan x="32" y="16.471"><tspan x="-0.1" text-anchor="start">100%堆叠</tspan></tspan></text></g><g id="o1:43" transform="translate(320, 483.1809999999999)"><rect x="0" y="0" width="200" height="218.82" fill="#3867b9" stroke="none" stroke-width="0" rx="0" ry="0"/></g><g id="o1:44" transform="translate(320, 355.08099999999996)"><rect x="0" y="0" width="200" height="128.1" fill="#63bce3" stroke="none" stroke-width="0" rx="0" ry="0"/></g><g id="o1:45" transform="translate(320, 322.32099999999997)"><rect x="0" y="0" width="200" height="32.76" fill="#20a7a0" stroke="none" stroke-width="0" rx="0" ry="0"/></g><g id="o1:46" transform="translate(320, 283.26099999999997)"><rect x="0" y="0" width="200" height="39.06" fill="#5b5ce2" stroke="none" stroke-width="0" rx="0" ry="0"/></g><g id="o1:47" transform="translate(320, 282.001)"><rect x="0" y="0" width="200" height="1.26" fill="#cbd5e1" stroke="none" stroke-width="0" rx="0" ry="0"/></g><g id="o1:48" transform="translate(320, 282.001)"><rect x="0" y="0" width="200" height="420" fill="none" stroke="#cbd5e1" stroke-width="1" rx="0" ry="0"/></g><g id="a1:58" transform="translate(380.5, 574.824)"><text font-size="18" font-family="Noto Sans SC" font-weight="bold" fill="#ffffff" text-anchor="middle" dominant-baseline="alphabetic" x="39.5"><tspan x="39.5" y="21.177"><tspan x="-1" text-anchor="start">T3 52.1%</tspan></tspan></text></g><g id="a1:59" transform="translate(380.5, 402.82399999999996)"><text font-size="18" font-family="Noto Sans SC" font-weight="bold" fill="#ffffff" text-anchor="middle" dominant-baseline="alphabetic" x="39.5"><tspan x="39.5" y="21.177"><tspan x="-1" text-anchor="start">T2 30.5%</tspan></tspan></text></g><g id="a1:60" transform="translate(389.5, 325.17699999999996)"><text font-size="16" font-family="Noto Sans SC" font-weight="bold" fill="#ffffff" text-anchor="middle" dominant-baseline="alphabetic" x="30.5"><tspan x="30.5" y="18.824"><tspan x="-0.78" text-anchor="start">T1 7.8%</tspan></tspan></text></g><g id="a1:61" transform="translate(387.5, 289.17699999999996)"><text font-size="16" font-family="Noto Sans SC" font-weight="bold" fill="#ffffff" text-anchor="middle" dominant-baseline="alphabetic" x="32.5"><tspan x="32.5" y="18.824"><tspan x="0.06" text-anchor="start">US 9.3%</tspan></tspan></text></g><g id="c1:22" transform="translate(520, 282.631)"><path fill="none" stroke="#94a3b8" stroke-width="2" stroke-linecap="round" stroke-linejoin="round" d="M 0 0 L 20 0"/></g><g id="a1:62" transform="translate(550, 271.53)"><text font-size="14" font-family="Noto Sans SC" font-weight="normal" fill="#475569" text-anchor="start" dominant-baseline="alphabetic" x="0"><tspan x="0" y="16.471"><tspan x="0" text-anchor="start">其他0.3%</tspan></tspan></text></g><g id="a1:63" transform="translate(390, 728.471)"><text font-size="20" font-family="Noto Sans SC" font-weight="bold" fill="#0f172a" text-anchor="middle" dominant-baseline="alphabetic" x="30"><tspan x="30" y="23.53"><tspan x="0" text-anchor="start">下载侧</tspan></tspan></text></g><g id="a1:64" transform="translate(950, 210.471)"><text font-size="20" font-family="Noto Sans SC" font-weight="bold" fill="#0f172a" text-anchor="middle" dominant-baseline="alphabetic" x="30"><tspan x="30" y="23.53"><tspan x="0" text-anchor="start">收入侧</tspan></tspan></text></g><g id="a1:65" transform="translate(948, 241.53)"><text font-size="14" font-family="Noto Sans SC" font-weight="normal" fill="#64748b" text-anchor="middle" dominant-baseline="alphabetic" x="32"><tspan x="32" y="16.471"><tspan x="-0.1" text-anchor="start">100%堆叠</tspan></tspan></text></g><g id="o1:49" transform="translate(880, 568.441)"><rect x="0" y="0" width="200" height="133.56" fill="#3867b9" stroke="none" stroke-width="0" rx="0" ry="0"/></g><g id="o1:50" transform="translate(880, 486.121)"><rect x="0" y="0" width="200" height="82.32" fill="#63bce3" stroke="none" stroke-width="0" rx="0" ry="0"/></g><g id="o1:51" transform="translate(880, 385.741)"><rect x="0" y="0" width="200" height="100.38" fill="#20a7a0" stroke="none" stroke-width="0" rx="0" ry="0"/></g><g id="o1:52" transform="translate(880, 284.941)"><rect x="0" y="0" width="200" height="100.8" fill="#5b5ce2" stroke="none" stroke-width="0" rx="0" ry="0"/></g><g id="o1:53" transform="translate(880, 282.001)"><rect x="0" y="0" width="200" height="2.94" fill="#cbd5e1" stroke="none" stroke-width="0" rx="0" ry="0"/></g><g id="o1:54" transform="translate(880, 282.001)"><rect x="0" y="0" width="200" height="420" fill="none" stroke="#cbd5e1" stroke-width="1" rx="0" ry="0"/></g><g id="a1:66" transform="translate(940.5, 617.824)"><text font-size="18" font-family="Noto Sans SC" font-weight="bold" fill="#ffffff" text-anchor="middle" dominant-baseline="alphabetic" x="39.5"><tspan x="39.5" y="21.177"><tspan x="-1" text-anchor="start">T3 31.8%</tspan></tspan></text></g><g id="a1:67" transform="translate(940.5, 511.82399999999996)"><text font-size="18" font-family="Noto Sans SC" font-weight="bold" fill="#ffffff" text-anchor="middle" dominant-baseline="alphabetic" x="39.5"><tspan x="39.5" y="21.177"><tspan x="-1" text-anchor="start">T2 19.6%</tspan></tspan></text></g><g id="a1:68" transform="translate(940.5, 419.82399999999996)"><text font-size="18" font-family="Noto Sans SC" font-weight="bold" fill="#ffffff" text-anchor="middle" dominant-baseline="alphabetic" x="39.5"><tspan x="39.5" y="21.177"><tspan x="-1" text-anchor="start">T1 23.9%</tspan></tspan></text></g><g id="a1:69" transform="translate(938.5, 317.82399999999996)"><text font-size="18" font-family="Noto Sans SC" font-weight="bold" fill="#ffffff" text-anchor="middle" dominant-baseline="alphabetic" x="41.5"><tspan x="41.5" y="21.177"><tspan x="-0.305" text-anchor="start">US 24.0%</tspan></tspan></text></g><g id="c1:23" transform="translate(1080, 283.471)"><path fill="none" stroke="#94a3b8" stroke-width="2" stroke-linecap="round" stroke-linejoin="round" d="M 0 0 L 20 0"/></g><g id="a1:70" transform="translate(1110, 271.53)"><text font-size="14" font-family="Noto Sans SC" font-weight="normal" fill="#475569" text-anchor="start" dominant-baseline="alphabetic" x="0"><tspan x="0" y="16.471"><tspan x="0" text-anchor="start">其他0.7%</tspan></tspan></text></g><g id="a1:71" transform="translate(950, 728.471)"><text font-size="20" font-family="Noto Sans SC" font-weight="bold" fill="#0f172a" text-anchor="middle" dominant-baseline="alphabetic" x="30"><tspan x="30" y="23.53"><tspan x="0" text-anchor="start">收入侧</tspan></tspan></text></g></g>
</svg>