<svg xmlns="http://www.w3.org/2000/svg"
     width="1640"
     height="940"
     viewBox="-20 -20 1640 940">
<g id="o1:25" transform="translate(0, 0)"><rect x="0" y="0" width="1600" height="900" fill="#ffffff" stroke="none" stroke-width="0" rx="0" ry="0"/></g>
<g id="a1:38" transform="translate(100, 45.058)"><text font-size="28" font-family="Noto Sans SC" font-weight="bold" fill="#182230" text-anchor="start" dominant-baseline="alphabetic" x="0"><tspan x="0" y="32.942"><tspan x="0" text-anchor="start">补充地区组下载与收入偏好</tspan></tspan></text></g>
<g id="a1:39" transform="translate(100, 93.176)"><text font-size="16" font-family="Noto Sans SC" font-weight="normal" fill="#667085" text-anchor="start" dominant-baseline="alphabetic" x="0"><tspan x="0" y="18.824"><tspan x="0" text-anchor="start">下载侧与收入侧的 Top5 国家地区份额结构 · 单位：%</tspan></tspan></text></g>
<g id="c1:12" transform="translate(100, 142)"><path fill="none" stroke="#e5e7eb" stroke-width="2" stroke-linecap="round" stroke-linejoin="round" d="M 0 0 L 1400 0"/></g>
<g id="o1:26" transform="translate(693, 183)"><ellipse fill="#2f67e8" stroke="none" stroke-width="0" cx="7" cy="7" rx="7" ry="7"/></g>
<g id="a1:40" transform="translate(714, 177.176)"><text font-size="16" font-family="Noto Sans SC" font-weight="bold" fill="#344054" text-anchor="start" dominant-baseline="alphabetic" x="0"><tspan x="0" y="18.824"><tspan x="0" text-anchor="start">下载侧</tspan></tspan></text></g>
<g id="o1:27" transform="translate(843, 183)"><ellipse fill="#f05a00" stroke="none" stroke-width="0" cx="7" cy="7" rx="7" ry="7"/></g>
<g id="a1:41" transform="translate(864, 177.176)"><text font-size="16" font-family="Noto Sans SC" font-weight="bold" fill="#344054" text-anchor="start" dominant-baseline="alphabetic" x="0"><tspan x="0" y="18.824"><tspan x="0" text-anchor="start">收入侧</tspan></tspan></text></g>
<g id="a1:42" transform="translate(729.5, 227.529)"><text font-size="14" font-family="Noto Sans SC" font-weight="normal" fill="#98a2b3" text-anchor="middle" dominant-baseline="alphabetic" x="10.5"><tspan x="10.5" y="16.471"><tspan x="0.17" text-anchor="start">0%</tspan></tspan></text></g>
<g id="a1:43" transform="translate(576.5, 227.529)"><text font-size="14" font-family="Noto Sans SC" font-weight="normal" fill="#98a2b3" text-anchor="middle" dominant-baseline="alphabetic" x="14.5"><tspan x="14.5" y="16.471"><tspan x="0.285" text-anchor="start">10%</tspan></tspan></text></g>
<g id="a1:44" transform="translate(428.5, 227.529)"><text font-size="14" font-family="Noto Sans SC" font-weight="normal" fill="#98a2b3" text-anchor="middle" dominant-baseline="alphabetic" x="14.5"><tspan x="14.5" y="16.471"><tspan x="0.285" text-anchor="start">20%</tspan></tspan></text></g>
<g id="a1:45" transform="translate(279.5, 227.529)"><text font-size="14" font-family="Noto Sans SC" font-weight="normal" fill="#98a2b3" text-anchor="middle" dominant-baseline="alphabetic" x="14.5"><tspan x="14.5" y="16.471"><tspan x="0.285" text-anchor="start">30%</tspan></tspan></text></g>
<g id="a1:46" transform="translate(205.5, 227.529)"><text font-size="14" font-family="Noto Sans SC" font-weight="normal" fill="#98a2b3" text-anchor="middle" dominant-baseline="alphabetic" x="14.5"><tspan x="14.5" y="16.471"><tspan x="0.285" text-anchor="start">35%</tspan></tspan></text></g>
<g id="a1:47" transform="translate(849.5, 227.529)"><text font-size="14" font-family="Noto Sans SC" font-weight="normal" fill="#98a2b3" text-anchor="middle" dominant-baseline="alphabetic" x="10.5"><tspan x="10.5" y="16.471"><tspan x="0.17" text-anchor="start">0%</tspan></tspan></text></g>
<g id="a1:48" transform="translate(994.5, 227.529)"><text font-size="14" font-family="Noto Sans SC" font-weight="normal" fill="#98a2b3" text-anchor="middle" dominant-baseline="alphabetic" x="14.5"><tspan x="14.5" y="16.471"><tspan x="0.285" text-anchor="start">10%</tspan></tspan></text></g>
<g id="a1:49" transform="translate(1142.5, 227.529)"><text font-size="14" font-family="Noto Sans SC" font-weight="normal" fill="#98a2b3" text-anchor="middle" dominant-baseline="alphabetic" x="14.5"><tspan x="14.5" y="16.471"><tspan x="0.285" text-anchor="start">20%</tspan></tspan></text></g>
<g id="a1:50" transform="translate(1291.5, 227.529)"><text font-size="14" font-family="Noto Sans SC" font-weight="normal" fill="#98a2b3" text-anchor="middle" dominant-baseline="alphabetic" x="14.5"><tspan x="14.5" y="16.471"><tspan x="0.285" text-anchor="start">30%</tspan></tspan></text></g>
<g id="a1:51" transform="translate(1365.5, 227.529)"><text font-size="14" font-family="Noto Sans SC" font-weight="normal" fill="#98a2b3" text-anchor="middle" dominant-baseline="alphabetic" x="14.5"><tspan x="14.5" y="16.471"><tspan x="0.285" text-anchor="start">35%</tspan></tspan></text></g>
<g id="n1:6" transform="translate(220, 262)"><g id="c1:13" transform="translate(0, 0)"><path fill="none" stroke="#e5e7eb" stroke-width="2" stroke-dasharray="4 6" d="M 0 0 L 0 446"/></g><g id="c1:14" transform="translate(74, 0)"><path fill="none" stroke="#e5e7eb" stroke-width="2" stroke-dasharray="4 6" d="M 0 0 L 0 446"/></g><g id="c1:15" transform="translate(223, 0)"><path fill="none" stroke="#e5e7eb" stroke-width="2" stroke-dasharray="4 6" d="M 0 0 L 0 446"/></g><g id="c1:16" transform="translate(371, 0)"><path fill="none" stroke="#e5e7eb" stroke-width="2" stroke-dasharray="4 6" d="M 0 0 L 0 446"/></g><g id="c1:17" transform="translate(520, 0)"><path fill="none" stroke="#e5e7eb" stroke-width="2" stroke-dasharray="4 6" d="M 0 0 L 0 446"/></g><g id="c1:18" transform="translate(640, 0)"><path fill="none" stroke="#e5e7eb" stroke-width="2" stroke-dasharray="4 6" d="M 0 0 L 0 446"/></g><g id="c1:19" transform="translate(789, 0)"><path fill="none" stroke="#e5e7eb" stroke-width="2" stroke-dasharray="4 6" d="M 0 0 L 0 446"/></g><g id="c1:20" transform="translate(937, 0)"><path fill="none" stroke="#e5e7eb" stroke-width="2" stroke-dasharray="4 6" d="M 0 0 L 0 446"/></g><g id="c1:21" transform="translate(1086, 0)"><path fill="none" stroke="#e5e7eb" stroke-width="2" stroke-dasharray="4 6" d="M 0 0 L 0 446"/></g><g id="c1:22" transform="translate(1160, 0)"><path fill="none" stroke="#e5e7eb" stroke-width="2" stroke-dasharray="4 6" d="M 0 0 L 0 446"/></g></g>
<g id="n1:7" transform="translate(180, 366)"><g id="c1:23" transform="translate(0, 0)"><path fill="none" stroke="#e5e7eb" stroke-width="1" stroke-linecap="round" stroke-linejoin="round" d="M 0 0 L 1240 0"/></g><g id="c1:24" transform="translate(0, 120)"><path fill="none" stroke="#e5e7eb" stroke-width="1" stroke-linecap="round" stroke-linejoin="round" d="M 0 0 L 1240 0"/></g><g id="c1:25" transform="translate(0, 240)"><path fill="none" stroke="#e5e7eb" stroke-width="1" stroke-linecap="round" stroke-linejoin="round" d="M 0 0 L 1240 0"/></g></g>
<g id="a1:52" transform="translate(787, 300.823)"><text font-size="18" font-family="Noto Sans SC" font-weight="bold" fill="#182230" text-anchor="middle" dominant-baseline="alphabetic" x="13"><tspan x="13" y="21.177"><tspan x="0.76" text-anchor="start">US</tspan></tspan></text></g>
<g id="o1:28" transform="translate(602, 290)"><rect x="0" y="0" width="138" height="44" fill="#2f67e8" stroke="none" stroke-width="0" rx="22" ry="22"/></g>
<g id="a1:53" transform="translate(652.5, 299.176)"><text font-size="16" font-family="Noto Sans SC" font-weight="bold" fill="#ffffff" text-anchor="middle" dominant-baseline="alphabetic" x="18.5"><tspan x="18.5" y="18.824"><tspan x="-1.245" text-anchor="start">9.3%</tspan></tspan></text></g>
<g id="o1:29" transform="translate(860, 290)"><rect x="0" y="0" width="357" height="44" fill="#f05a00" stroke="none" stroke-width="0" rx="22" ry="22"/></g>
<g id="a1:54" transform="translate(1016, 299.176)"><text font-size="16" font-family="Noto Sans SC" font-weight="bold" fill="#ffffff" text-anchor="middle" dominant-baseline="alphabetic" x="23"><tspan x="23" y="18.824"><tspan x="-1.465" text-anchor="start">24.0%</tspan></tspan></text></g>
<g id="a1:55" transform="translate(790.5, 420.823)"><text font-size="18" font-family="Noto Sans SC" font-weight="bold" fill="#182230" text-anchor="middle" dominant-baseline="alphabetic" x="9.5"><tspan x="9.5" y="21.177"><tspan x="-0.21" text-anchor="start">IN</tspan></tspan></text></g>
<g id="o1:30" transform="translate(238, 410)"><rect x="0" y="0" width="502" height="44" fill="#2f67e8" stroke="none" stroke-width="0" rx="22" ry="22"/></g>
<g id="a1:56" transform="translate(466, 419.176)"><text font-size="16" font-family="Noto Sans SC" font-weight="bold" fill="#ffffff" text-anchor="middle" dominant-baseline="alphabetic" x="23"><tspan x="23" y="18.824"><tspan x="-1.465" text-anchor="start">33.8%</tspan></tspan></text></g>
<g id="o1:31" transform="translate(860, 410)"><rect x="0" y="0" width="79" height="44" fill="#f05a00" stroke="none" stroke-width="0" rx="22" ry="22"/></g>
<g id="a1:57" transform="translate(881.5, 419.176)"><text font-size="16" font-family="Noto Sans SC" font-weight="bold" fill="#ffffff" text-anchor="middle" dominant-baseline="alphabetic" x="18.5"><tspan x="18.5" y="18.824"><tspan x="-1.245" text-anchor="start">5.3%</tspan></tspan></text></g>
<g id="a1:58" transform="translate(782, 540.823)"><text font-size="18" font-family="Noto Sans SC" font-weight="bold" fill="#182230" text-anchor="middle" dominant-baseline="alphabetic" x="18"><tspan x="18" y="21.177"><tspan x="0" text-anchor="start">拉美</tspan></tspan></text></g>
<g id="o1:32" transform="translate(406, 530)"><rect x="0" y="0" width="334" height="44" fill="#2f67e8" stroke="none" stroke-width="0" rx="22" ry="22"/></g>
<g id="a1:59" transform="translate(550, 539.176)"><text font-size="16" font-family="Noto Sans SC" font-weight="bold" fill="#ffffff" text-anchor="middle" dominant-baseline="alphabetic" x="23"><tspan x="23" y="18.824"><tspan x="-1.465" text-anchor="start">22.5%</tspan></tspan></text></g>
<g id="o1:33" transform="translate(860, 530)"><rect x="0" y="0" width="101" height="44" fill="#f05a00" stroke="none" stroke-width="0" rx="22" ry="22"/></g>
<g id="a1:60" transform="translate(892.5, 539.176)"><text font-size="16" font-family="Noto Sans SC" font-weight="bold" fill="#ffffff" text-anchor="middle" dominant-baseline="alphabetic" x="18.5"><tspan x="18.5" y="18.824"><tspan x="-1.245" text-anchor="start">6.8%</tspan></tspan></text></g>
<g id="a1:61" transform="translate(773, 660.823)"><text font-size="18" font-family="Noto Sans SC" font-weight="bold" fill="#182230" text-anchor="middle" dominant-baseline="alphabetic" x="27"><tspan x="27" y="21.177"><tspan x="0" text-anchor="start">东南亚</tspan></tspan></text></g>
<g id="o1:34" transform="translate(520, 650)"><rect x="0" y="0" width="220" height="44" fill="#2f67e8" stroke="none" stroke-width="0" rx="22" ry="22"/></g>
<g id="a1:62" transform="translate(607, 659.176)"><text font-size="16" font-family="Noto Sans SC" font-weight="bold" fill="#ffffff" text-anchor="middle" dominant-baseline="alphabetic" x="23"><tspan x="23" y="18.824"><tspan x="-1.465" text-anchor="start">14.8%</tspan></tspan></text></g>
<g id="o1:35" transform="translate(860, 650)"><rect x="0" y="0" width="321" height="44" fill="#f05a00" stroke="none" stroke-width="0" rx="22" ry="22"/></g>
<g id="a1:63" transform="translate(998, 659.176)"><text font-size="16" font-family="Noto Sans SC" font-weight="bold" fill="#ffffff" text-anchor="middle" dominant-baseline="alphabetic" x="23"><tspan x="23" y="18.824"><tspan x="-1.465" text-anchor="start">21.6%</tspan></tspan></text></g>
<g id="o1:36" transform="translate(220, 724)"><rect x="0" y="0" width="1160" height="62" fill="#fafafa" stroke="#e5e7eb" stroke-width="1.5" rx="8" ry="8"/></g>
<g id="a1:64" transform="translate(250, 745.529)"><text font-size="14" font-family="Noto Sans SC" font-weight="normal" fill="#475467" text-anchor="start" dominant-baseline="alphabetic" x="0"><tspan x="0" y="16.471"><tspan x="0" text-anchor="start">IN、拉美、东南亚为可重叠观察组，不与主分层相加；US 为主分层，仅为对照纳入此图。</tspan></tspan></text></g>
</svg>